<svg xmlns="http://www.w3.org/2000/svg" xmlns:xlink="http://www.w3.org/1999/xlink" width="55" height="55" viewBox="0 0 55 55">
  <defs>
    <clipPath id="clip-path">
      <rect id="Rectangle_15474" data-name="Rectangle 15474" width="55" height="55" transform="translate(140 1831)" fill="none"/>
    </clipPath>
    <clipPath id="clip-path-2">
      <rect id="Rectangle_15505" data-name="Rectangle 15505" width="55" height="55" fill="none"/>
    </clipPath>
  </defs>
  <g id="Mask_Group_13" data-name="Mask Group 13" transform="translate(-140 -1831)" clip-path="url(#clip-path)">
    <g id="Group_2494" data-name="Group 2494" transform="translate(-287.5 1702.5)">
      <path id="Path_1749" data-name="Path 1749" d="M709.512,172.789H689.3a3.044,3.044,0,0,0-3.044,3.044v11.432a3.044,3.044,0,0,0,3.044,3.044h7.189L695.329,195a.665.665,0,0,0,1.051.687l7-5.377h6.132a3.044,3.044,0,0,0,3.044-3.044V175.833a3.044,3.044,0,0,0-3.044-3.044Zm0,0" transform="translate(-231.275 -39.844)" fill="#48c6fd"/>
      <path id="Path_1752" data-name="Path 1752" d="M476.952,378.592a6.916,6.916,0,0,0-4.232-5.831c-2.987-1.4-11.122-3.515-11.122-3.515a1.66,1.66,0,0,1-1.357-1.631v-4.65H451.4v4.65a1.659,1.659,0,0,1-1.356,1.631s-8.135,2.116-11.123,3.515a6.916,6.916,0,0,0-4.232,5.831l-.183,11.087a2.213,2.213,0,0,0,2.213,2.24h38.207a2.214,2.214,0,0,0,2.214-2.24Zm0,0" transform="translate(-6.563 -209.591)" fill="#fff"/>
      <path id="Path_1754" data-name="Path 1754" d="M522.993,253.367h-1.161a1.794,1.794,0,0,0-1.767,2.16l.456,2.511c.354,1.861,2.475,1.01,2.475,1.01Zm0,0" transform="translate(-82.906 -111.767)" fill="#fff"/>
      <path id="Path_1755" data-name="Path 1755" d="M718.269,253.367h1.161a1.794,1.794,0,0,1,1.767,2.16l-.456,2.511c-.354,1.861-2.475,1.01-2.475,1.01Zm0,0" transform="translate(-259.844 -111.767)" fill="#fff"/>
      <path id="Path_1756" data-name="Path 1756" d="M561.235,142.543a9.144,9.144,0,0,0-12.871,0A9.735,9.735,0,0,0,545.4,149.7l0,9.515c0,4.5,5.847,9.156,9.4,9.156s9.4-4.658,9.4-9.156l0-9.515a9.737,9.737,0,0,0-2.969-7.154Zm0,0" transform="translate(-105.543 -10.484)" fill="#fff"/>
      <path id="Path_1758" data-name="Path 1758" d="M545.376,135.5H533.741a5.421,5.421,0,0,0-5.421,5.421v7.48a3.742,3.742,0,0,1,2.452.915.317.317,0,0,0,.539-.228v-5.862a2.4,2.4,0,0,1,2.4-2.4h2.177a2.472,2.472,0,0,1,1.566.559l.214.175a2.992,2.992,0,0,0,3.788,0l.214-.175a2.472,2.472,0,0,1,1.566-.559h2.177a2.4,2.4,0,0,1,2.4,2.4v5.862a.318.318,0,0,0,.539.228,3.74,3.74,0,0,1,2.452-.916v-7.48a5.421,5.421,0,0,0-5.421-5.421Zm0,0" transform="translate(-90.303 -6.561)" fill="#fff"/>
      <path id="Path_1760" data-name="Path 1760" d="M472.72,432.456a65.763,65.763,0,0,0-7.827-2.612l-.564.214a24.027,24.027,0,0,1-17.02,0l-.564-.214a65.77,65.77,0,0,0-7.827,2.612,6.916,6.916,0,0,0-4.232,5.831l-.183,11.087a2.213,2.213,0,0,0,2.213,2.24h38.207a2.214,2.214,0,0,0,2.214-2.24l-.184-11.087a6.916,6.916,0,0,0-4.232-5.831Zm0,0" transform="translate(-6.563 -269.286)" fill="#48c6fd"/>
      <path id="Path_1761" data-name="Path 1761" d="M507.821,448.835H480.289a1.6,1.6,0,0,1-1.592-1.483l-1.126-15.8a1.6,1.6,0,0,1,1.592-1.71h29.785a1.6,1.6,0,0,1,1.592,1.71l-1.126,15.8a1.6,1.6,0,0,1-1.592,1.483Zm0,0" transform="translate(-45.001 -269.286)" fill="#fff"/>
      <path id="Path_1763" data-name="Path 1763" d="M507.822,609.415H476.744a1.389,1.389,0,0,1,0-2.778h31.078a1.389,1.389,0,0,1,0,2.778Zm0,0" transform="translate(-43.027 -427.088)" fill="#fff"/>
      <path id="Path_1764" data-name="Path 1764" d="M616.688,505.7a2.223,2.223,0,1,1-2.223-2.223,2.223,2.223,0,0,1,2.223,2.223Zm0,0" transform="translate(-165.21 -335.009)" fill="#fff"/>
      <path id="Path_1765" data-name="Path 1765" d="M767.08,239.007a.753.753,0,0,0-.677-.726.3.3,0,0,0-.189.05l-2.527,1.642a.658.658,0,0,0,0,1.115l2.527,1.642a.3.3,0,0,0,.189.05.752.752,0,0,0,.677-.726.456.456,0,0,0-.179-.388l-1.752-1.134L766.9,239.4a.457.457,0,0,0,.179-.388Zm0,0" transform="translate(-300.111 -98.301)"/>
      <path id="Path_1766" data-name="Path 1766" d="M811.519,213.367a.438.438,0,0,0-.418.249l-3.492,7.173a.448.448,0,0,0-.05.189.551.551,0,0,0,.558.527.5.5,0,0,0,.448-.248l3.5-7.174a.432.432,0,0,0,.04-.189.57.57,0,0,0-.587-.527Zm0,0" transform="translate(-339.545 -76.063)"/>
      <g id="Group_2493" data-name="Group 2493" transform="translate(427.5 128.5)">
        <g id="Group_2492" data-name="Group 2492" transform="translate(0 0)" clip-path="url(#clip-path-2)">
          <path id="Path_1767" data-name="Path 1767" d="M863.01,239.972l-2.527-1.642a.3.3,0,0,0-.189-.05.752.752,0,0,0-.676.726.456.456,0,0,0,.179.388l1.751,1.134-1.751,1.134a.456.456,0,0,0-.179.388.752.752,0,0,0,.676.726.3.3,0,0,0,.189-.05l2.527-1.642a.658.658,0,0,0,0-1.115Zm0,0" transform="translate(-813.511 -226.801)"/>
          <path id="Path_1768" data-name="Path 1768" d="M478.106,132.006H460.759A6.237,6.237,0,0,0,454.941,128H443.306a6.234,6.234,0,0,0-6.226,6.226v7.07a2.627,2.627,0,0,0-.846,2.475l.457,2.517a2.192,2.192,0,0,0,.979,1.529,2.369,2.369,0,0,0,1.246.33v.447c0,2.269,1.324,4.77,3.632,6.862a14.818,14.818,0,0,0,1.347,1.085v1.35a.854.854,0,0,1-.7.839l-.056.012c-.014,0-1.4.364-3.205.877H434.03a2.4,2.4,0,0,0-2.4,2.573l.016.227a7.713,7.713,0,0,0-4.463,6.4v.034L427,179.944A3.018,3.018,0,0,0,430.021,183h38.207a3.019,3.019,0,0,0,3.019-3.059l-.183-11.087c0-.011,0-.023,0-.034a7.752,7.752,0,0,0-4.695-6.513l-.159-.073,0-.042a2.4,2.4,0,0,0-2.4-2.573h-5.5c-1.808-.513-3.191-.873-3.205-.877l-.056-.013a.854.854,0,0,1-.7-.839v-1.349a14.872,14.872,0,0,0,1.347-1.085,11.767,11.767,0,0,0,3.121-4.32h5.235l-.914,3.69a1.454,1.454,0,0,0,.622,1.584,1.453,1.453,0,0,0,1.7-.064l6.783-5.211h5.858a3.854,3.854,0,0,0,3.85-3.85V135.855a3.854,3.854,0,0,0-3.85-3.85Zm-18.773,10.683a3.479,3.479,0,0,1,.79-.165,1.039,1.039,0,0,1,.306.96l-.455,2.5c-.066.35-.2.433-.245.46a.786.786,0,0,1-.4.089Zm-20.642-8.462a4.62,4.62,0,0,1,4.615-4.615h11.636a4.62,4.62,0,0,1,4.615,4.615v6.75a4.689,4.689,0,0,0-1.38.464v-4.909a3.205,3.205,0,0,0-3.2-3.2H452.8a3.29,3.29,0,0,0-2.077.741l-.213.175a2.187,2.187,0,0,1-2.768,0l-.214-.175a3.289,3.289,0,0,0-2.077-.741h-2.177a3.205,3.205,0,0,0-3.2,3.2v4.909a4.687,4.687,0,0,0-1.38-.464Zm-.172,12.221c-.044-.027-.178-.11-.243-.453l-.456-2.511a1.041,1.041,0,0,1,.305-.96,3.479,3.479,0,0,1,.791.164v3.849a.789.789,0,0,1-.4-.089ZM431.39,180.8a2.191,2.191,0,0,0,.079.584h-1.449a1.408,1.408,0,0,1-1.408-1.421L428.8,168.9a5.914,5.914,0,0,1,2.98-4.709l.984,13.8a2.381,2.381,0,0,0,.167.721,2.2,2.2,0,0,0-1.536,2.093Zm33.694-2.814,1-14.023a6,6,0,0,1,3.368,4.931l.183,11.066a1.408,1.408,0,0,1-1.408,1.425h-1.448a2.2,2.2,0,0,0-1.83-2.759,2.373,2.373,0,0,0,.135-.639Zm.162,2.814a.584.584,0,0,1-.583.584H433.585a.583.583,0,0,1,0-1.167h31.078a.584.584,0,0,1,.583.583Zm-.853-19.323a.782.782,0,0,1,.21.6l-1.126,15.8a.793.793,0,0,1-.788.734H435.156a.794.794,0,0,1-.789-.734l-1.126-15.8a.79.79,0,0,1,.788-.847h29.785a.784.784,0,0,1,.579.252Zm-10.945-1.863H444.8a2.462,2.462,0,0,0,.708-1.728v-.361a6.884,6.884,0,0,0,7.233,0v.361a2.462,2.462,0,0,0,.708,1.728Zm1.169-5.357c-1.8,1.63-3.955,2.683-5.493,2.683s-3.694-1.053-5.493-2.683c-1.972-1.786-3.1-3.853-3.1-5.668l0-5.076h.031a1.126,1.126,0,0,0,1.125-1.125v-5.862a1.592,1.592,0,0,1,1.59-1.59h2.177a1.673,1.673,0,0,1,1.056.377l.214.175a3.8,3.8,0,0,0,4.807,0l.214-.175a1.674,1.674,0,0,1,1.057-.377h2.177a1.593,1.593,0,0,1,1.591,1.59v5.862a1.126,1.126,0,0,0,1.156,1.125v5.076c0,1.815-1.131,3.881-3.1,5.668Zm25.727-6.975a2.241,2.241,0,0,1-2.238,2.238h-6.131a.8.8,0,0,0-.49.167l-6.683,5.133,1.065-4.3a.805.805,0,0,0-.782-1H459.26a6.233,6.233,0,0,0,.072-.931v-.447a2.369,2.369,0,0,0,1.245-.33,2.195,2.195,0,0,0,.981-1.535l.456-2.511a2.627,2.627,0,0,0-.846-2.475v-7.07c0-.205-.01-.409-.03-.609h16.968a2.241,2.241,0,0,1,2.238,2.238Zm0,0" transform="translate(-427.368 -128.367)"/>
        </g>
      </g>
      <path id="Path_1769" data-name="Path 1769" d="M607.771,502.035a3.029,3.029,0,1,0-3.029-3.029,3.032,3.032,0,0,0,3.029,3.029Zm0-4.446a1.417,1.417,0,1,1-1.418,1.417,1.419,1.419,0,0,1,1.418-1.417Zm0,0" transform="translate(-158.515 -328.315)"/>
    </g>
  </g>
</svg>
